<svg width="275" height="180" viewBox="0 0 275 180" fill="none" xmlns="http://www.w3.org/2000/svg">
<path d="M70.6 0.900024H30.4V5.40003H70.6V0.900024Z" fill="#FCFDFD"/>
<path d="M56 10.9H30.4V15.4H56V10.9Z" fill="#FCFDFD"/>
<path d="M173.5 10.9H70.4V15.4H173.5V10.9Z" fill="#FCFDFD"/>
<path d="M237.5 10.9H183.5V15.4H237.5V10.9Z" fill="#FF6452"/>
<path d="M105.5 20.9H40.4V25.4H105.5V20.9Z" fill="#00D050"/>
<path d="M222.5 20.9H125.5V25.4H222.5V20.9Z" fill="#FCFDFD"/>
<path d="M122 30.9H30.4V35.4H122V30.9Z" fill="#FF6452"/>
<path d="M195.5 30.9H130.4V35.4H195.5V30.9Z" fill="#00D5E4"/>
<path d="M105.5 40.9H40.4V45.4H105.5V40.9Z" fill="#FCFDFD"/>
<path d="M125.5 50.9H30.4V55.4H125.5V50.9Z" fill="#FCFDFD"/>
<path d="M95.5 60.9H30.4V65.4H95.5V60.9Z" fill="#FCFDFD"/>
<path d="M159 70.9H50.4V75.4H159V70.9Z" fill="#FF6452"/>
<path d="M205.5 70.9H170.4V75.4H205.5V70.9Z" fill="#FCFDFD"/>
<path d="M255.5 70.9H220.4V75.4H255.5V70.9Z" fill="#FCFDFD"/>
<path d="M104.7 80.9H60.4V85.4H104.7V80.9Z" fill="#FCFDFD"/>
<path d="M119.5 90.9H60.4V95.4H119.5V90.9Z" fill="#FF6452"/>
<path d="M205.5 90.9H140.4V95.4H205.5V90.9Z" fill="#FCFDFD"/>
<path d="M247.5 90.9H220.4V95.4H247.5V90.9Z" fill="#FF6452"/>
<path d="M70.4 100.9H30.4V105.4H70.4V100.9Z" fill="#FCFDFD"/>
<path d="M95.5 110.9H30.4V115.4H95.5V110.9Z" fill="#FCFDFD"/>
<path d="M178.5 120.9H60.4V125.4H178.5V120.9Z" fill="#FCFDFD"/>
<path d="M263.5 120.9H190.4V125.4H263.5V120.9Z" fill="#00D5E4"/>
<path d="M100.5 130.9H60.4V135.4H100.5V130.9Z" fill="#FCFDFD"/>
<path d="M150.5 130.9H110.4V135.4H150.5V130.9Z" fill="#00D050"/>
<path d="M200.5 130.9H160.4V135.4H200.5V130.9Z" fill="#FCFDFD"/>
<path d="M95.5 140.9H30.4V145.4H95.5V140.9Z" fill="#FCFDFD"/>
<path d="M115.5 150.9H50.4V155.4H115.5V150.9Z" fill="#00D050"/>
<path d="M193 150.9H127.9V155.4H193V150.9Z" fill="#00D050"/>
<path d="M163 170.9H126.5V175.4H163V170.9Z" fill="#FCFDFD"/>
<path d="M147 160.9H50.4V165.4H147V160.9Z" fill="#FCFDFD"/>
<path d="M5.29999 0.900024H0.799988V5.40003H5.29999V0.900024Z" fill="#5E94C1"/>
<path d="M5.29999 10.9H0.799988V15.4H5.29999V10.9Z" fill="#5E94C1"/>
<path d="M5.29999 20.9H0.799988V25.4H5.29999V20.9Z" fill="#5E94C1"/>
<path d="M5.29999 30.9H0.799988V35.4H5.29999V30.9Z" fill="#5E94C1"/>
<path d="M5.29999 40.9H0.799988V45.4H5.29999V40.9Z" fill="#5E94C1"/>
<path d="M5.29999 50.9H0.799988V55.4H5.29999V50.9Z" fill="#5E94C1"/>
<path d="M5.29999 60.9H0.799988V65.4H5.29999V60.9Z" fill="#5E94C1"/>
<path d="M5.29999 70.9H0.799988V75.4H5.29999V70.9Z" fill="#5E94C1"/>
<path d="M5.29999 80.9H0.799988V85.4H5.29999V80.9Z" fill="#5E94C1"/>
<path d="M5.29999 90.9H0.799988V95.4H5.29999V90.9Z" fill="#5E94C1"/>
<path d="M5.29999 100.9H0.799988V105.4H5.29999V100.9Z" fill="#5E94C1"/>
<path d="M5.29999 110.9H0.799988V115.4H5.29999V110.9Z" fill="#5E94C1"/>
<path d="M5.29999 120.9H0.799988V125.4H5.29999V120.9Z" fill="#5E94C1"/>
<path d="M5.29999 130.9H0.799988V135.4H5.29999V130.9Z" fill="#5E94C1"/>
<path d="M5.29999 140.9H0.799988V145.4H5.29999V140.9Z" fill="#5E94C1"/>
<path d="M5.29999 150.9H0.799988V155.4H5.29999V150.9Z" fill="#5E94C1"/>
<path d="M5.29999 160.9H0.799988V165.4H5.29999V160.9Z" fill="#5E94C1"/>
<path d="M5.29999 170.9H0.799988V175.4H5.29999V170.9Z" fill="#5E94C1"/>
<path d="M98.7 170.9H50.4V175.4H98.7V170.9Z" fill="#FCFDFD"/>
<path d="M239.7 175.3L220.7 167.2V163.9L239.7 155.8V159.3L224.6 165.5L239.7 171.7V175.3Z" fill="#FCFDFD"/>
<path d="M253.1 151L244.8 179.7H242L250.3 151H253.1Z" fill="#FCFDFD"/>
<path d="M274.3 167.2L255.3 175.3V171.8L270.4 165.6L255.3 159.4V155.9L274.3 164V167.2Z" fill="#FCFDFD"/>
</svg>
